<svg xmlns="http://www.w3.org/2000/svg" xmlns:xlink="http://www.w3.org/1999/xlink" width="1080" zoomAndPan="magnify" viewBox="0 0 810 404.99999" height="540" preserveAspectRatio="xMidYMid meet" version="1.0"><defs><g/><clipPath id="c69ab7a9b8"><path d="M 285 111 L 479 111 L 479 214.996094 L 285 214.996094 Z M 285 111 " clip-rule="nonzero"/></clipPath><clipPath id="525080ec79"><path d="M 286 14.101562 L 474 14.101562 L 474 95 L 286 95 Z M 286 14.101562 " clip-rule="nonzero"/></clipPath><clipPath id="b4e58b5db9"><path d="M 232.6875 80 L 523 80 L 523 153 L 232.6875 153 Z M 232.6875 80 " clip-rule="nonzero"/></clipPath></defs><path fill="#273d7f" d="M 557.101562 31.429688 C 556.96875 31.660156 556.816406 31.871094 556.664062 32.097656 C 555.824219 33.28125 554.832031 34.582031 553.765625 35.957031 C 552.808594 37.140625 551.796875 38.382812 550.710938 39.664062 L 551.78125 45.664062 L 552.238281 48.296875 L 552.960938 52.328125 L 553.304688 54.296875 L 553.648438 56.378906 L 554.011719 58.347656 L 554.222656 59.511719 L 554.964844 63.792969 L 555.269531 65.511719 L 555.289062 65.644531 L 556.035156 69.789062 L 556.242188 70.957031 L 556.339844 71.507812 L 557.121094 75.960938 C 557.21875 76.496094 557.234375 76.859375 557.199219 77.183594 L 557.199219 77.257812 C 557.101562 77.773438 556.796875 78.214844 556.128906 79.074219 C 556.015625 79.226562 555.882812 79.378906 555.765625 79.53125 C 555.386719 80.03125 555.195312 80.296875 555.042969 80.355469 L 554.984375 80.355469 C 554.832031 80.316406 554.753906 79.894531 554.46875 79.167969 C 553.800781 77.429688 553.132812 75.710938 552.410156 74.03125 C 552.292969 73.746094 552.160156 73.457031 552.046875 73.152344 C 551.664062 72.234375 551.265625 71.300781 550.84375 70.363281 C 550.617188 69.847656 550.386719 69.3125 550.136719 68.796875 C 549.96875 68.414062 549.796875 68.050781 549.625 67.667969 L 547.238281 62.761719 L 546.074219 60.351562 C 544.566406 57.449219 543.003906 54.601562 541.363281 51.8125 C 541.113281 51.414062 540.886719 51.011719 540.636719 50.609375 C 539.585938 51.679688 538.558594 52.730469 537.507812 53.761719 C 537.414062 53.859375 537.296875 53.953125 537.203125 54.046875 C 534.988281 56.246094 532.757812 58.347656 530.675781 60.21875 C 529.511719 61.289062 528.367188 62.28125 527.300781 63.199219 C 527.089844 63.390625 526.863281 63.5625 526.652344 63.753906 L 526.671875 63.867188 L 526.957031 65.894531 L 527.359375 68.777344 L 527.394531 68.988281 L 527.71875 71.28125 L 527.855469 72.160156 L 528.101562 73.933594 L 528.425781 76.226562 C 528.484375 76.550781 528.386719 76.800781 528.214844 77.070312 C 527.835938 77.621094 527.511719 78.117188 527.167969 78.636719 C 527.109375 78.710938 527.050781 78.808594 526.996094 78.882812 C 526.878906 79.054688 526.765625 79.226562 526.652344 79.398438 C 526.5 79.609375 526.5 79.648438 526.367188 79.417969 C 526.269531 79.226562 526.175781 79.054688 526.097656 78.882812 L 526.078125 78.882812 C 526.003906 78.730469 525.925781 78.578125 525.851562 78.425781 L 525.203125 77.183594 C 524.894531 76.550781 524.570312 75.921875 524.246094 75.3125 C 523.960938 74.757812 523.675781 74.203125 523.390625 73.648438 C 523.160156 73.191406 522.929688 72.769531 522.703125 72.332031 C 522.703125 72.3125 522.703125 72.3125 522.703125 72.3125 C 522.433594 71.816406 522.1875 71.300781 521.917969 70.800781 C 521.84375 70.628906 521.75 70.441406 521.652344 70.265625 L 521.0625 69.714844 L 520.414062 69.121094 L 519.078125 67.878906 L 517.78125 66.636719 L 516.578125 65.472656 L 516.558594 65.472656 L 514.441406 64.515625 C 514.382812 64.5 514.324219 64.480469 514.289062 64.441406 C 512.683594 63.734375 511.0625 63.027344 509.460938 62.300781 C 509.042969 62.109375 508.621094 61.9375 508.203125 61.746094 C 507.859375 61.59375 507.515625 61.441406 507.171875 61.289062 C 506.921875 61.175781 506.980469 61.15625 507.171875 60.984375 C 507.417969 60.8125 507.667969 60.621094 507.914062 60.449219 C 508.390625 60.066406 508.871094 59.703125 509.402344 59.300781 C 509.671875 59.109375 509.898438 58.996094 510.242188 59.035156 L 512.550781 59.226562 L 514.308594 59.378906 L 520.621094 59.894531 L 522.777344 60.085938 C 523.769531 58.75 524.878906 57.316406 526.058594 55.824219 C 527.796875 53.6875 529.703125 51.414062 531.707031 49.101562 C 531.839844 48.949219 531.976562 48.8125 532.089844 48.660156 C 533.0625 47.554688 534.054688 46.445312 535.046875 45.335938 C 531.804688 43.617188 528.445312 42.011719 525.03125 40.464844 L 517.53125 37.351562 C 517.398438 37.292969 517.265625 37.238281 517.128906 37.199219 C 513.449219 35.746094 509.671875 34.410156 505.777344 33.167969 C 504.367188 32.710938 504.136719 32.9375 505.339844 31.886719 C 505.472656 31.773438 505.625 31.640625 505.777344 31.527344 C 507.074219 30.378906 507.34375 30.207031 508.582031 30.320312 L 508.851562 30.339844 L 509.15625 30.378906 C 509.269531 30.398438 509.402344 30.398438 509.519531 30.417969 L 519.554688 31.601562 L 521.082031 31.773438 L 525.390625 32.289062 L 532.625 33.128906 L 536.707031 33.609375 L 545.386719 34.640625 C 546.609375 33.472656 547.773438 32.386719 548.898438 31.371094 C 550.347656 30.074219 551.742188 28.910156 553 27.933594 C 553.078125 27.875 553.152344 27.820312 553.230469 27.761719 C 555.40625 26.101562 557.21875 24.992188 558.496094 24.667969 C 559.03125 24.535156 559.46875 24.535156 559.792969 24.667969 C 560.367188 25.792969 559.257812 28.21875 557.101562 31.429688 " fill-opacity="1" fill-rule="evenodd"/><g clip-path="url(#c69ab7a9b8)"><path fill="#273d7f" d="M 478.074219 111.015625 C 477.179688 111.246094 476.28125 111.4375 475.402344 111.761719 C 473.953125 112.296875 472.65625 113.289062 471.320312 114.070312 C 470.003906 114.875 468.648438 115.621094 467.257812 116.269531 C 465.652344 117.050781 463.992188 117.816406 462.277344 118.3125 C 461.839844 118.445312 461.304688 118.597656 460.730469 118.695312 C 460.617188 121.234375 460.367188 123.738281 460.027344 126.203125 C 454.378906 166.585938 419.710938 197.667969 377.8125 197.667969 C 351.425781 197.667969 327.898438 185.347656 312.691406 166.109375 C 328.355469 165.957031 343.542969 163.816406 358.007812 159.941406 C 358.027344 159.941406 358.027344 159.941406 358.027344 159.941406 C 359.839844 159.460938 361.632812 158.945312 363.40625 158.410156 C 354.058594 159.882812 344.5 160.644531 334.75 160.644531 C 325.457031 160.644531 316.316406 159.957031 307.40625 158.601562 C 299.945312 157.476562 292.621094 155.910156 285.484375 153.902344 C 287.125 157.742188 288.996094 161.46875 291.09375 165.058594 C 308.476562 194.9375 340.796875 214.996094 377.8125 214.996094 C 432.570312 214.996094 477.082031 171.097656 478.132812 116.515625 C 478.152344 115.867188 478.152344 115.21875 478.152344 114.550781 C 478.152344 113.363281 478.113281 112.179688 478.074219 111.015625 " fill-opacity="1" fill-rule="evenodd"/></g><g clip-path="url(#525080ec79)"><path fill="#3c92c7" d="M 471.300781 77.984375 C 470.691406 76.457031 470.0625 74.929688 469.375 73.4375 C 467.140625 68.433594 464.507812 63.65625 461.53125 59.148438 C 448.921875 40.082031 429.992188 25.585938 407.746094 18.628906 C 398.304688 15.6875 388.246094 14.085938 377.8125 14.085938 C 358.0625 14.085938 339.632812 19.816406 324.101562 29.691406 C 318.09375 33.511719 312.519531 37.945312 307.464844 42.929688 C 300.613281 49.675781 294.71875 57.410156 290.027344 65.894531 C 288.691406 68.320312 287.429688 70.800781 286.285156 73.34375 C 290.847656 76.972656 295.84375 80.046875 301.1875 82.53125 C 307.234375 85.359375 313.703125 87.382812 320.496094 88.511719 C 314.46875 85.417969 308.722656 81.804688 303.363281 77.738281 C 307.101562 70.171875 311.949219 63.277344 317.691406 57.21875 C 322.214844 52.480469 327.289062 48.261719 332.800781 44.6875 C 345.777344 36.300781 361.230469 31.429688 377.8125 31.429688 C 387.238281 31.429688 396.300781 32.996094 404.734375 35.898438 C 423.46875 42.320312 439.171875 55.253906 449.148438 72.007812 C 451.953125 76.6875 454.300781 81.652344 456.132812 86.886719 C 449.628906 90.039062 442.796875 92.617188 435.679688 94.511719 C 443.160156 94.011719 450.429688 92.789062 457.429688 90.917969 C 457.734375 90.84375 458.042969 90.746094 458.328125 90.671875 C 463.652344 89.199219 468.820312 87.367188 473.800781 85.1875 C 473.058594 82.742188 472.21875 80.355469 471.300781 77.984375 " fill-opacity="1" fill-rule="evenodd"/></g><g clip-path="url(#b4e58b5db9)"><path fill="#273d7f" d="M 522.949219 80.355469 C 514.382812 89.925781 504.234375 98.921875 492.691406 107.082031 C 492.269531 107.386719 491.832031 107.691406 491.410156 107.976562 C 491.085938 108.207031 490.761719 108.417969 490.457031 108.648438 C 488.722656 109.832031 486.984375 110.996094 485.210938 112.160156 C 484.847656 112.371094 484.484375 112.621094 484.121094 112.847656 C 483.265625 113.382812 482.386719 113.9375 481.507812 114.472656 C 480.382812 115.179688 479.277344 115.847656 478.132812 116.515625 C 478.035156 116.574219 477.960938 116.613281 477.863281 116.671875 C 477.578125 116.859375 477.273438 117.03125 476.988281 117.203125 C 471.550781 120.375 465.902344 123.394531 460.027344 126.203125 C 459.546875 126.433594 459.070312 126.660156 458.59375 126.890625 C 443.902344 133.84375 427.953125 139.613281 410.972656 143.929688 C 410.972656 143.949219 410.972656 143.949219 410.972656 143.929688 C 403.703125 145.804688 396.222656 147.386719 388.609375 148.6875 C 387.425781 148.898438 386.261719 149.089844 385.082031 149.28125 C 369.644531 151.726562 354.457031 152.871094 339.746094 152.757812 C 339.726562 152.757812 339.710938 152.757812 339.710938 152.757812 C 339.289062 152.777344 338.890625 152.777344 338.46875 152.757812 C 336.027344 152.738281 333.585938 152.699219 331.179688 152.605469 C 328.796875 152.507812 326.449219 152.394531 324.101562 152.242188 C 324.027344 152.222656 323.96875 152.222656 323.890625 152.222656 C 323.53125 152.203125 323.1875 152.183594 322.84375 152.144531 C 319.90625 151.953125 316.984375 151.6875 314.105469 151.398438 C 310.25 151 306.433594 150.523438 302.675781 149.949219 C 301.855469 149.816406 301.035156 149.679688 300.214844 149.546875 C 294.167969 148.574219 288.25 147.386719 282.507812 145.976562 C 264.039062 141.464844 247.210938 134.820312 232.691406 126.355469 C 247.574219 130.75 263.351562 134.074219 279.816406 136.214844 C 285.523438 136.9375 291.285156 137.53125 297.140625 137.988281 C 297.484375 138.007812 297.828125 138.027344 298.171875 138.066406 C 302.769531 138.410156 307.40625 138.640625 312.101562 138.8125 C 314.542969 138.886719 317.003906 138.945312 319.445312 138.984375 C 319.808594 138.984375 320.152344 138.984375 320.476562 138.984375 C 320.78125 138.984375 321.105469 139.003906 321.410156 139.003906 C 322.023438 139.003906 322.632812 139.003906 323.242188 139.003906 C 324.75 139.003906 326.257812 139.003906 327.765625 139.003906 C 328.507812 138.984375 329.253906 138.984375 330.015625 138.964844 C 330.417969 138.964844 330.835938 138.945312 331.257812 138.945312 C 332.765625 138.90625 334.289062 138.867188 335.796875 138.8125 C 338.257812 138.734375 340.738281 138.621094 343.238281 138.503906 C 356.195312 137.816406 369.398438 136.441406 382.714844 134.320312 C 385.003906 133.957031 387.292969 133.578125 389.5625 133.175781 C 390.023438 133.097656 390.480469 133.023438 390.9375 132.925781 C 391.855469 132.773438 392.75 132.601562 393.648438 132.429688 C 393.742188 132.410156 393.839844 132.390625 393.933594 132.375 C 395.078125 132.164062 396.261719 131.933594 397.40625 131.703125 C 398.628906 131.457031 399.828125 131.207031 401.050781 130.960938 C 402.117188 130.75 403.167969 130.519531 404.238281 130.273438 C 405 130.117188 405.761719 129.945312 406.527344 129.773438 C 407.25 129.621094 407.976562 129.449219 408.703125 129.277344 C 409.921875 129.011719 411.125 128.722656 412.34375 128.4375 C 413.355469 128.191406 414.347656 127.941406 415.359375 127.691406 C 416.464844 127.425781 417.574219 127.140625 418.679688 126.851562 C 418.984375 126.757812 419.289062 126.679688 419.613281 126.605469 C 420.378906 126.394531 421.140625 126.203125 421.90625 125.992188 C 422.800781 125.746094 423.71875 125.496094 424.613281 125.246094 C 425.167969 125.09375 425.71875 124.941406 426.253906 124.789062 C 426.539062 124.710938 426.828125 124.636719 427.09375 124.558594 C 427.378906 124.484375 427.667969 124.386719 427.953125 124.3125 C 428.773438 124.082031 429.574219 123.832031 430.375 123.605469 C 430.644531 123.527344 430.910156 123.453125 431.15625 123.375 C 431.84375 123.164062 432.550781 122.957031 433.257812 122.746094 C 435.394531 122.09375 437.550781 121.40625 439.6875 120.71875 C 441.691406 120.070312 443.675781 119.421875 445.660156 118.734375 C 448.539062 117.738281 451.382812 116.726562 454.207031 115.65625 C 454.359375 115.621094 454.492188 115.5625 454.644531 115.503906 C 454.742188 115.464844 454.816406 115.449219 454.894531 115.410156 C 455.714844 115.105469 456.554688 114.796875 457.375 114.472656 C 457.773438 114.320312 458.175781 114.148438 458.59375 113.996094 C 459.339844 113.710938 460.082031 113.421875 460.828125 113.117188 C 461.589844 112.8125 462.351562 112.503906 463.117188 112.199219 C 466.953125 110.652344 470.730469 109.046875 474.449219 107.367188 C 474.753906 107.234375 475.058594 107.097656 475.382812 106.945312 C 476.1875 106.601562 476.988281 106.238281 477.769531 105.875 C 478.476562 105.550781 479.164062 105.226562 479.847656 104.902344 C 480.441406 104.636719 481.050781 104.347656 481.644531 104.0625 C 482.023438 103.871094 482.40625 103.699219 482.769531 103.507812 C 485.324219 102.285156 487.84375 101.023438 490.34375 99.761719 C 490.4375 99.707031 490.535156 99.667969 490.609375 99.609375 C 490.894531 99.476562 491.164062 99.324219 491.449219 99.171875 C 502.609375 93.402344 513.125 87.097656 522.949219 80.355469 " fill-opacity="1" fill-rule="evenodd"/></g><path fill="#3c92c7" d="M 495.78125 84.671875 C 491.832031 87.269531 487.710938 89.734375 483.417969 92.082031 C 481.414062 93.191406 479.351562 94.261719 477.273438 95.292969 C 476.988281 95.445312 476.683594 95.578125 476.394531 95.734375 C 475.402344 96.230469 474.410156 96.6875 473.398438 97.164062 C 472.886719 97.414062 472.351562 97.660156 471.816406 97.910156 C 471.742188 97.949219 471.644531 97.988281 471.550781 98.023438 C 471.53125 98.042969 471.492188 98.0625 471.453125 98.082031 C 470.539062 98.503906 469.621094 98.902344 468.6875 99.304688 C 468.535156 99.382812 468.363281 99.457031 468.171875 99.535156 C 467.484375 99.859375 466.78125 100.144531 466.074219 100.433594 C 465.597656 100.640625 465.101562 100.851562 464.605469 101.0625 C 463.785156 101.40625 462.925781 101.75 462.066406 102.074219 C 461.476562 102.324219 460.847656 102.570312 460.253906 102.800781 C 460.179688 102.839844 460.101562 102.859375 460.027344 102.894531 C 459.683594 103.03125 459.359375 103.144531 458.996094 103.277344 C 458.785156 103.375 458.574219 103.449219 458.347656 103.527344 C 457.773438 103.738281 457.203125 103.964844 456.589844 104.175781 C 456.496094 104.214844 456.382812 104.253906 456.265625 104.289062 C 455.253906 104.671875 454.226562 105.035156 453.195312 105.398438 C 452.183594 105.742188 451.171875 106.085938 450.160156 106.429688 C 448.386719 107.003906 446.59375 107.578125 444.800781 108.113281 C 444.761719 108.128906 444.742188 108.128906 444.703125 108.148438 C 444.132812 108.320312 443.558594 108.492188 442.988281 108.664062 C 442.089844 108.933594 441.175781 109.179688 440.277344 109.429688 C 440.203125 109.449219 440.125 109.46875 440.050781 109.488281 C 439.210938 109.734375 438.332031 109.964844 437.472656 110.175781 C 436.117188 110.539062 434.746094 110.921875 433.351562 111.246094 C 432.398438 111.472656 431.445312 111.703125 430.472656 111.933594 C 429.210938 112.21875 427.914062 112.503906 426.636719 112.792969 C 426.617188 112.792969 426.617188 112.792969 426.597656 112.792969 C 425.855469 112.945312 425.089844 113.097656 424.347656 113.25 C 420.246094 114.089844 416.066406 114.816406 411.832031 115.449219 C 407.878906 116.019531 403.929688 116.5 400.039062 116.878906 C 398.894531 116.996094 397.789062 117.070312 396.660156 117.167969 C 395.613281 117.261719 394.542969 117.339844 393.496094 117.394531 C 393.417969 117.414062 393.34375 117.433594 393.246094 117.414062 C 392.484375 117.472656 391.683594 117.53125 390.898438 117.566406 C 390.480469 117.585938 390.058594 117.625 389.640625 117.644531 C 388.667969 117.683594 387.675781 117.722656 386.703125 117.757812 C 386.664062 117.757812 386.644531 117.777344 386.605469 117.757812 C 385.824219 117.796875 385.042969 117.816406 384.261719 117.855469 C 383.6875 117.855469 383.117188 117.875 382.5625 117.894531 C 382.066406 117.894531 381.589844 117.894531 381.113281 117.894531 C 380.40625 117.910156 379.71875 117.910156 379.011719 117.910156 C 378.554688 117.929688 378.117188 117.910156 377.660156 117.910156 C 377.066406 117.910156 376.476562 117.910156 375.882812 117.894531 C 375.386719 117.894531 374.871094 117.894531 374.359375 117.875 C 373.652344 117.875 372.945312 117.855469 372.238281 117.835938 C 371.707031 117.816406 371.191406 117.796875 370.65625 117.777344 C 370.351562 117.777344 370.066406 117.757812 369.796875 117.738281 C 368.9375 117.722656 368.117188 117.683594 367.28125 117.625 C 367.011719 117.625 366.746094 117.625 366.496094 117.585938 C 365.636719 117.550781 364.800781 117.492188 363.941406 117.433594 C 361.898438 117.300781 359.855469 117.128906 357.835938 116.9375 C 357.089844 116.859375 356.386719 116.804688 355.660156 116.707031 C 355.277344 116.6875 354.878906 116.632812 354.515625 116.59375 C 352.433594 116.363281 350.414062 116.097656 348.390625 115.792969 C 347.378906 115.65625 346.367188 115.503906 345.375 115.332031 C 344.746094 115.238281 344.117188 115.140625 343.507812 115.027344 C 342.972656 114.933594 342.417969 114.855469 341.882812 114.757812 C 340.910156 114.570312 339.957031 114.398438 339.003906 114.207031 C 338.46875 114.089844 337.953125 113.996094 337.4375 113.882812 C 336.921875 113.785156 336.390625 113.671875 335.875 113.554688 C 335.246094 113.421875 334.613281 113.289062 333.984375 113.136719 C 333.757812 113.097656 333.507812 113.039062 333.261719 112.964844 C 332.554688 112.8125 331.828125 112.640625 331.125 112.46875 C 330.855469 112.410156 330.589844 112.351562 330.320312 112.277344 C 329.519531 112.085938 328.699219 111.875 327.878906 111.644531 C 327.019531 111.417969 326.164062 111.1875 325.285156 110.957031 C 325.074219 110.902344 324.867188 110.824219 324.65625 110.765625 C 323.875 110.539062 323.109375 110.308594 322.328125 110.078125 C 321.984375 109.984375 321.640625 109.871094 321.277344 109.773438 C 320.726562 109.582031 320.171875 109.429688 319.617188 109.238281 C 315.992188 108.09375 312.5 106.832031 309.125 105.457031 C 308.265625 105.132812 307.425781 104.789062 306.585938 104.425781 C 304.679688 103.621094 302.789062 102.78125 300.957031 101.882812 C 300.632812 101.730469 300.308594 101.597656 300.003906 101.445312 C 298.878906 100.890625 297.773438 100.335938 296.664062 99.746094 C 296.511719 99.667969 296.339844 99.574219 296.167969 99.476562 C 290.539062 96.496094 285.351562 93.210938 280.621094 89.601562 C 273.558594 84.25 267.570312 78.234375 262.800781 71.664062 C 264.878906 72.941406 267.035156 74.203125 269.230469 75.445312 C 273.523438 77.832031 278.0625 80.105469 282.792969 82.226562 C 287.488281 84.347656 292.390625 86.316406 297.503906 88.148438 C 297.847656 88.28125 298.210938 88.414062 298.574219 88.53125 C 298.6875 88.570312 298.800781 88.605469 298.898438 88.644531 C 300.195312 89.105469 301.492188 89.542969 302.808594 89.984375 C 305.136719 90.746094 307.503906 91.492188 309.886719 92.199219 C 312.464844 92.960938 315.058594 93.6875 317.710938 94.375 C 333.449219 98.503906 350.507812 101.347656 368.441406 102.6875 C 377.277344 103.355469 386.339844 103.640625 395.535156 103.527344 C 400.515625 103.449219 405.457031 103.296875 410.324219 102.992188 C 411.21875 102.953125 412.117188 102.894531 412.992188 102.839844 C 413.011719 102.839844 413.011719 102.820312 413.050781 102.839844 C 414.671875 102.722656 416.292969 102.609375 417.898438 102.476562 C 418.738281 102.398438 419.539062 102.324219 420.359375 102.246094 C 421.828125 102.113281 423.277344 101.980469 424.726562 101.828125 C 432.628906 100.984375 440.335938 99.878906 447.816406 98.484375 C 448.195312 98.40625 448.578125 98.332031 448.960938 98.253906 C 452.296875 97.625 455.578125 96.9375 458.804688 96.191406 C 458.824219 96.191406 458.863281 96.171875 458.878906 96.171875 C 460.769531 95.734375 462.660156 95.292969 464.507812 94.816406 C 466.855469 94.222656 469.164062 93.613281 471.453125 92.980469 C 471.757812 92.886719 472.066406 92.808594 472.371094 92.714844 C 472.980469 92.542969 473.589844 92.351562 474.203125 92.179688 C 474.660156 92.046875 475.117188 91.910156 475.554688 91.777344 C 478.113281 91.015625 480.632812 90.210938 483.113281 89.371094 C 487.460938 87.898438 491.699219 86.332031 495.78125 84.671875 " fill-opacity="1" fill-rule="evenodd"/><g fill="#273d7f" fill-opacity="1"><g transform="translate(32.240184, 347.433866)"><g><path d="M 56.019531 -21.804688 C 46.960938 -21.804688 41.929688 -26.835938 41.929688 -35.558594 L 41.929688 -70.777344 L 66.585938 -70.777344 L 66.585938 -90.570312 L 41.59375 -90.570312 L 41.59375 -114.050781 L 36.898438 -114.050781 L 1.175781 -76.144531 L 1.175781 -70.777344 L 17.441406 -70.777344 L 17.441406 -32.203125 C 17.441406 -12.242188 29.6875 0 49.644531 0 L 67.089844 0 L 67.089844 -21.804688 Z M 56.019531 -21.804688 "/></g></g></g><g fill="#273d7f" fill-opacity="1"><g transform="translate(104.356508, 347.433866)"><g><path d="M 58.03125 -91.074219 C 46.292969 -91.074219 38.242188 -87.382812 31.699219 -79.332031 L 27.339844 -90.570312 L 11.742188 -90.570312 L 11.742188 0 L 36.226562 0 L 36.226562 -46.960938 C 36.226562 -61.722656 41.59375 -67.929688 55.347656 -67.929688 L 66.082031 -67.929688 L 66.082031 -91.074219 Z M 58.03125 -91.074219 "/></g></g></g><g fill="#273d7f" fill-opacity="1"><g transform="translate(172.615452, 347.433866)"><g><path d="M 85.539062 -90.570312 L 83.023438 -82.015625 C 75.140625 -88.894531 64.910156 -93.085938 53.167969 -93.085938 C 25.996094 -93.085938 5.703125 -72.625 5.703125 -45.285156 C 5.703125 -17.945312 25.996094 2.683594 53.167969 2.683594 C 64.742188 2.683594 74.804688 -1.339844 82.519531 -8.21875 L 84.699219 0 L 103.820312 0 L 103.820312 -90.570312 Z M 55.179688 -20.460938 C 40.925781 -20.460938 30.527344 -31.195312 30.527344 -45.285156 C 30.527344 -59.542969 40.925781 -70.109375 55.179688 -70.109375 C 69.4375 -70.109375 79.835938 -59.542969 79.835938 -45.285156 C 79.835938 -31.027344 69.4375 -20.460938 55.179688 -20.460938 Z M 55.179688 -20.460938 "/></g></g></g><g fill="#273d7f" fill-opacity="1"><g transform="translate(288.337031, 347.433866)"><g><path d="M 71.113281 -90.570312 L 49.3125 -29.855469 L 27.171875 -90.570312 L 1.007812 -90.570312 L 37.90625 0 L 60.546875 0 L 96.441406 -90.570312 Z M 71.113281 -90.570312 "/></g></g></g><g fill="#273d7f" fill-opacity="1"><g transform="translate(386.281091, 347.433866)"><g><path d="M 99.628906 -45.453125 C 99.628906 -71.617188 80.507812 -93.085938 52.664062 -93.085938 C 25.828125 -93.085938 5.703125 -72.457031 5.703125 -45.285156 C 5.703125 -18.113281 25.996094 2.683594 52.664062 2.683594 C 73.796875 2.683594 91.074219 -9.894531 97.613281 -29.6875 L 71.953125 -29.6875 C 68.261719 -23.144531 61.21875 -19.121094 52.664062 -19.121094 C 40.757812 -19.121094 32.707031 -25.996094 30.527344 -38.410156 L 99.125 -38.410156 C 99.460938 -40.757812 99.628906 -43.105469 99.628906 -45.453125 Z M 52.664062 -72.121094 C 63.734375 -72.121094 71.617188 -66.082031 75.140625 -55.011719 L 31.195312 -55.011719 C 34.046875 -65.746094 41.761719 -72.121094 52.664062 -72.121094 Z M 52.664062 -72.121094 "/></g></g></g><g fill="#273d7f" fill-opacity="1"><g transform="translate(491.604491, 347.433866)"><g><path d="M 11.742188 0 L 36.226562 0 L 36.226562 -123.109375 L 11.742188 -123.109375 Z M 11.742188 0 "/></g></g></g><g fill="#273d7f" fill-opacity="1"><g transform="translate(539.570248, 347.433866)"><g><path d="M 11.742188 0 L 36.226562 0 L 36.226562 -123.109375 L 11.742188 -123.109375 Z M 11.742188 0 "/></g></g></g><g fill="#273d7f" fill-opacity="1"><g transform="translate(587.536006, 347.433866)"><g><path d="M 99.628906 -45.453125 C 99.628906 -71.617188 80.507812 -93.085938 52.664062 -93.085938 C 25.828125 -93.085938 5.703125 -72.457031 5.703125 -45.285156 C 5.703125 -18.113281 25.996094 2.683594 52.664062 2.683594 C 73.796875 2.683594 91.074219 -9.894531 97.613281 -29.6875 L 71.953125 -29.6875 C 68.261719 -23.144531 61.21875 -19.121094 52.664062 -19.121094 C 40.757812 -19.121094 32.707031 -25.996094 30.527344 -38.410156 L 99.125 -38.410156 C 99.460938 -40.757812 99.628906 -43.105469 99.628906 -45.453125 Z M 52.664062 -72.121094 C 63.734375 -72.121094 71.617188 -66.082031 75.140625 -55.011719 L 31.195312 -55.011719 C 34.046875 -65.746094 41.761719 -72.121094 52.664062 -72.121094 Z M 52.664062 -72.121094 "/></g></g></g><g fill="#273d7f" fill-opacity="1"><g transform="translate(692.859406, 347.433866)"><g><path d="M 58.03125 -91.074219 C 46.292969 -91.074219 38.242188 -87.382812 31.699219 -79.332031 L 27.339844 -90.570312 L 11.742188 -90.570312 L 11.742188 0 L 36.226562 0 L 36.226562 -46.960938 C 36.226562 -61.722656 41.59375 -67.929688 55.347656 -67.929688 L 66.082031 -67.929688 L 66.082031 -91.074219 Z M 58.03125 -91.074219 "/></g></g></g></svg>